<?xml version="1.0" standalone="no"?>
<!DOCTYPE svg PUBLIC "-//W3C//DTD SVG 1.1//EN"
"http://www.w3.org/Graphics/SVG/1.1/DTD/svg11.dtd">

<svg width="420" height="313" view_box="0 0 420 313"
xmlns="http://www.w3.org/2000/svg"
xmlns:link="http://www.w3.org/1999/xlink">\n\n<desc>Généré par Mocodo 2.3.7 le Mon, 03 Jan 2022 08:17:23</desc>

<rect id="frame" x="0" y="0" width="420" height="313" fill="#ffffbf" stroke="none" stroke-width="0"/>

<!-- Association avoir envoyé -->
<line x1="177" y1="77" x2="56" y2="77" stroke="#74add1" stroke-width="2"/>
<text x="108" y="94.0" fill="#d73027" font-family="Verdana" font-size="12">0,N</text>
<line x1="56" y1="195" x2="56" y2="77" stroke="#74add1" stroke-width="2"/>
<text x="61.0" y="162" fill="#d73027" font-family="Verdana" font-size="12">1,1</text>
<g id="association-avoir envoyé">
	<path d="M 89 52 a 14 14 90 0 1 14 14 V 77 h -94 V 66 a 14 14 90 0 1 14 -14" fill="#abd9e9" stroke="#abd9e9" stroke-width="0"/>
	<path d="M 103 77.0 v 11 a 14 14 90 0 1 -14 14 H 23 a 14 14 90 0 1 -14 -14 V 77.0 H 94" fill="#e0f3f8" stroke="#e0f3f8" stroke-width="0"/>
	<rect x="9" y="52" width="94" height="50" fill="none" rx="14" stroke="#74add1" stroke-width="2"/>
	<line x1="9" y1="77" x2="103" y2="77" stroke="#74add1" stroke-width="1"/>
	<text x="16" y="69.7" fill="#000000" font-family="Verdana" font-size="12">avoir envoyé</text>
</g>

<!-- Association Exercer -->
<line x1="177" y1="77" x2="282" y2="77" stroke="#74add1" stroke-width="2"/>
<text x="224" y="94.0" fill="#d73027" font-family="Verdana" font-size="12">1,N</text>
<line x1="282" y1="195" x2="282" y2="77" stroke="#74add1" stroke-width="2"/>
<text x="287.0" y="153" fill="#d73027" font-family="Verdana" font-size="12">0,N</text>
<g id="association-Exercer">
	<path d="M 299 52 a 14 14 90 0 1 14 14 V 77 h -62 V 66 a 14 14 90 0 1 14 -14" fill="#abd9e9" stroke="#abd9e9" stroke-width="0"/>
	<path d="M 313 77.0 v 11 a 14 14 90 0 1 -14 14 H 265 a 14 14 90 0 1 -14 -14 V 77.0 H 62" fill="#e0f3f8" stroke="#e0f3f8" stroke-width="0"/>
	<rect x="251" y="52" width="62" height="50" fill="none" rx="14" stroke="#74add1" stroke-width="2"/>
	<line x1="251" y1="77" x2="313" y2="77" stroke="#74add1" stroke-width="1"/>
	<text x="258" y="69.7" fill="#000000" font-family="Verdana" font-size="12">Exercer</text>
</g>

<!-- Association concerner -->
<line x1="56" y1="195" x2="56" y2="279" stroke="#74add1" stroke-width="2"/>
<text x="61.0" y="237" fill="#d73027" font-family="Verdana" font-size="12">1,1</text>
<line x1="177" y1="279" x2="56" y2="279" stroke="#74add1" stroke-width="2"/>
<text x="131" y="296.0" fill="#d73027" font-family="Verdana" font-size="12">0,N</text>
<g id="association-concerner">
	<path d="M 79 254 a 14 14 90 0 1 14 14 V 279 h -74 V 268 a 14 14 90 0 1 14 -14" fill="#abd9e9" stroke="#abd9e9" stroke-width="0"/>
	<path d="M 93 279.0 v 11 a 14 14 90 0 1 -14 14 H 33 a 14 14 90 0 1 -14 -14 V 279.0 H 74" fill="#e0f3f8" stroke="#e0f3f8" stroke-width="0"/>
	<rect x="19" y="254" width="74" height="50" fill="none" rx="14" stroke="#74add1" stroke-width="2"/>
	<line x1="19" y1="279" x2="93" y2="279" stroke="#74add1" stroke-width="1"/>
	<text x="26" y="271.7" fill="#000000" font-family="Verdana" font-size="12">concerner</text>
</g>

<!-- Association correspondre -->
<line x1="177" y1="279" x2="282" y2="279" stroke="#74add1" stroke-width="2"/>
<text x="201" y="296.0" fill="#d73027" font-family="Verdana" font-size="12">1,1</text>
<line x1="386" y1="279" x2="282" y2="279" stroke="#74add1" stroke-width="2"/>
<text x="334" y="296.0" fill="#d73027" font-family="Verdana" font-size="12">1,N</text>
<g id="association-correspondre">
	<path d="M 315 254 a 14 14 90 0 1 14 14 V 279 h -94 V 268 a 14 14 90 0 1 14 -14" fill="#abd9e9" stroke="#abd9e9" stroke-width="0"/>
	<path d="M 329 279.0 v 11 a 14 14 90 0 1 -14 14 H 249 a 14 14 90 0 1 -14 -14 V 279.0 H 94" fill="#e0f3f8" stroke="#e0f3f8" stroke-width="0"/>
	<rect x="235" y="254" width="94" height="50" fill="none" rx="14" stroke="#74add1" stroke-width="2"/>
	<line x1="235" y1="279" x2="329" y2="279" stroke="#74add1" stroke-width="1"/>
	<text x="242" y="271.7" fill="#000000" font-family="Verdana" font-size="12">correspondre</text>
</g>

<!-- Association êtreActif -->
<line x1="177" y1="279" x2="177" y2="195" stroke="#74add1" stroke-width="2"/>
<text x="182.0" y="246" fill="#d73027" font-family="Verdana" font-size="12">0,N</text>
<line x1="177" y1="77" x2="177" y2="195" stroke="#74add1" stroke-width="2"/>
<text x="182.0" y="162" fill="#d73027" font-family="Verdana" font-size="12">0,N</text>
<g id="association-êtreActif">
	<path d="M 196 170 a 14 14 90 0 1 14 14 V 195 h -66 V 184 a 14 14 90 0 1 14 -14" fill="#abd9e9" stroke="#abd9e9" stroke-width="0"/>
	<path d="M 210 195.0 v 11 a 14 14 90 0 1 -14 14 H 158 a 14 14 90 0 1 -14 -14 V 195.0 H 66" fill="#e0f3f8" stroke="#e0f3f8" stroke-width="0"/>
	<rect x="144" y="170" width="66" height="50" fill="none" rx="14" stroke="#74add1" stroke-width="2"/>
	<line x1="144" y1="195" x2="210" y2="195" stroke="#74add1" stroke-width="1"/>
	<text x="151" y="187.7" fill="#000000" font-family="Verdana" font-size="12">êtreActif</text>
</g>

<!-- Entity Personnel -->
<g id="entity-Personnel">
	<g id="frame-Personnel">
		<rect x="135" y="9" width="84" height="25" fill="#fdae61" stroke="#fdae61" stroke-width="0"/>
		<rect x="135" y="34.0" width="84" height="111" fill="#fee090" stroke="#fee090" stroke-width="0"/>
		<rect x="135" y="9" width="84" height="136" fill="none" stroke="#f46d43" stroke-width="2"/>
		<line x1="135" y1="34" x2="219" y2="34" stroke="#f46d43" stroke-width="1"/>
	</g>
	<text x="147" y="26.7" fill="#000000" font-family="Verdana" font-size="12">Personnel</text>
	<text x="140" y="51.7" fill="#000000" font-family="Verdana" font-size="12">idPerso</text>
	<line x1="140" y1="54" x2="185" y2="54" stroke="#000000" stroke-width="1"/>
	<text x="140" y="68.7" fill="#000000" font-family="Verdana" font-size="12">mail</text>
	<text x="140" y="85.8" fill="#000000" font-family="Verdana" font-size="12">mdp</text>
	<text x="140" y="102.8" fill="#000000" font-family="Verdana" font-size="12">nom</text>
	<text x="140" y="119.8" fill="#000000" font-family="Verdana" font-size="12">prénom</text>
	<text x="140" y="136.8" fill="#000000" font-family="Verdana" font-size="12">admin(O/N)</text>
</g>

<!-- Entity Mois -->
<g id="entity-Mois">
	<g id="frame-Mois">
		<rect x="158" y="254" width="38" height="25" fill="#fdae61" stroke="#fdae61" stroke-width="0"/>
		<rect x="158" y="279.0" width="38" height="25" fill="#fee090" stroke="#fee090" stroke-width="0"/>
		<rect x="158" y="254" width="38" height="50" fill="none" stroke="#f46d43" stroke-width="2"/>
		<line x1="158" y1="279" x2="196" y2="279" stroke="#f46d43" stroke-width="1"/>
	</g>
	<text x="163" y="271.7" fill="#000000" font-family="Verdana" font-size="12">Mois</text>
	<text x="163" y="296.8" fill="#000000" font-family="Verdana" font-size="12">Mois</text>
	<line x1="163" y1="299" x2="191" y2="299" stroke="#000000" stroke-width="1"/>
</g>

<!-- Entity envoyé -->
<g id="entity-envoyé">
	<g id="frame-envoyé">
		<rect x="29" y="170" width="54" height="25" fill="#fdae61" stroke="#fdae61" stroke-width="0"/>
		<rect x="29" y="195.0" width="54" height="25" fill="#fee090" stroke="#fee090" stroke-width="0"/>
		<rect x="29" y="170" width="54" height="50" fill="none" stroke="#f46d43" stroke-width="2"/>
		<line x1="29" y1="195" x2="83" y2="195" stroke="#f46d43" stroke-width="1"/>
	</g>
	<text x="34" y="187.7" fill="#000000" font-family="Verdana" font-size="12">envoyé</text>
	<text x="34" y="212.8" fill="#000000" font-family="Verdana" font-size="12">pdf</text>
	<line x1="34" y1="215" x2="54" y2="215" stroke="#000000" stroke-width="1"/>
</g>

<!-- Entity Année -->
<g id="entity-Année">
	<g id="frame-Année">
		<rect x="361" y="254" width="50" height="25" fill="#fdae61" stroke="#fdae61" stroke-width="0"/>
		<rect x="361" y="279.0" width="50" height="25" fill="#fee090" stroke="#fee090" stroke-width="0"/>
		<rect x="361" y="254" width="50" height="50" fill="none" stroke="#f46d43" stroke-width="2"/>
		<line x1="361" y1="279" x2="411" y2="279" stroke="#f46d43" stroke-width="1"/>
	</g>
	<text x="366" y="271.7" fill="#000000" font-family="Verdana" font-size="12">Année</text>
	<text x="366" y="296.8" fill="#000000" font-family="Verdana" font-size="12">année</text>
	<line x1="366" y1="299" x2="404" y2="299" stroke="#000000" stroke-width="1"/>
</g>

<!-- Entity statut -->
<g id="entity-statut">
	<g id="frame-statut">
		<rect x="252" y="161" width="60" height="25" fill="#fdae61" stroke="#fdae61" stroke-width="0"/>
		<rect x="252" y="186.0" width="60" height="43" fill="#fee090" stroke="#fee090" stroke-width="0"/>
		<rect x="252" y="161" width="60" height="68" fill="none" stroke="#f46d43" stroke-width="2"/>
		<line x1="252" y1="186" x2="312" y2="186" stroke="#f46d43" stroke-width="1"/>
	</g>
	<text x="264" y="178.7" fill="#000000" font-family="Verdana" font-size="12">statut</text>
	<text x="257" y="203.8" fill="#000000" font-family="Verdana" font-size="12">idStatut</text>
	<line x1="257" y1="206" x2="306" y2="206" stroke="#000000" stroke-width="1"/>
	<text x="257" y="220.8" fill="#000000" font-family="Verdana" font-size="12">libellé</text>
</g>
</svg>