<?xml version="1.0" standalone="no"?>
<!DOCTYPE svg PUBLIC "-//W3C//DTD SVG 1.1//EN"
"http://www.w3.org/Graphics/SVG/1.1/DTD/svg11.dtd">

<svg width="298" height="211" view_box="0 0 298 211"
xmlns="http://www.w3.org/2000/svg"
xmlns:link="http://www.w3.org/1999/xlink">\n\n<desc>Généré par Mocodo 2.3.7 le Mon, 03 Jan 2022 05:30:39</desc>

<rect id="frame" x="0" y="0" width="298" height="211" fill="#ffffbf" stroke="none" stroke-width="0"/>

<!-- Association avoir envoyé -->
<line x1="170" y1="68" x2="56" y2="68" stroke="#74add1" stroke-width="2"/>
<text x="108" y="85.0" fill="#d73027" font-family="Verdana" font-size="12">0,N</text>
<line x1="56" y1="177" x2="56" y2="68" stroke="#74add1" stroke-width="2"/>
<text x="61.0" y="144" fill="#d73027" font-family="Verdana" font-size="12">1,1</text>
<g id="association-avoir envoyé">
	<path d="M 89 43 a 14 14 90 0 1 14 14 V 68 h -94 V 57 a 14 14 90 0 1 14 -14" fill="#abd9e9" stroke="#abd9e9" stroke-width="0"/>
	<path d="M 103 68.0 v 11 a 14 14 90 0 1 -14 14 H 23 a 14 14 90 0 1 -14 -14 V 68.0 H 94" fill="#e0f3f8" stroke="#e0f3f8" stroke-width="0"/>
	<rect x="9" y="43" width="94" height="50" fill="none" rx="14" stroke="#74add1" stroke-width="2"/>
	<line x1="9" y1="68" x2="103" y2="68" stroke="#74add1" stroke-width="1"/>
	<text x="16" y="60.7" fill="#000000" font-family="Verdana" font-size="12">avoir envoyé</text>
</g>

<!-- Association concerner -->
<line x1="56" y1="177" x2="170" y2="177" stroke="#74add1" stroke-width="2"/>
<text x="88" y="194.0" fill="#d73027" font-family="Verdana" font-size="12">1,1</text>
<line x1="264" y1="177" x2="170" y2="177" stroke="#74add1" stroke-width="2"/>
<text x="212" y="194.0" fill="#d73027" font-family="Verdana" font-size="12">0,N</text>
<g id="association-concerner">
	<path d="M 193 152 a 14 14 90 0 1 14 14 V 177 h -74 V 166 a 14 14 90 0 1 14 -14" fill="#abd9e9" stroke="#abd9e9" stroke-width="0"/>
	<path d="M 207 177.0 v 11 a 14 14 90 0 1 -14 14 H 147 a 14 14 90 0 1 -14 -14 V 177.0 H 74" fill="#e0f3f8" stroke="#e0f3f8" stroke-width="0"/>
	<rect x="133" y="152" width="74" height="50" fill="none" rx="14" stroke="#74add1" stroke-width="2"/>
	<line x1="133" y1="177" x2="207" y2="177" stroke="#74add1" stroke-width="1"/>
	<text x="140" y="169.7" fill="#000000" font-family="Verdana" font-size="12">concerner</text>
</g>

<!-- Entity date -->
<g id="entity-date">
	<g id="frame-date">
		<rect x="239" y="152" width="50" height="25" fill="#fdae61" stroke="#fdae61" stroke-width="0"/>
		<rect x="239" y="177.0" width="50" height="25" fill="#fee090" stroke="#fee090" stroke-width="0"/>
		<rect x="239" y="152" width="50" height="50" fill="none" stroke="#f46d43" stroke-width="2"/>
		<line x1="239" y1="177" x2="289" y2="177" stroke="#f46d43" stroke-width="1"/>
	</g>
	<text x="250" y="169.7" fill="#000000" font-family="Verdana" font-size="12">date</text>
	<text x="244" y="194.8" fill="#000000" font-family="Verdana" font-size="12">idDate</text>
	<line x1="244" y1="197" x2="284" y2="197" stroke="#000000" stroke-width="1"/>
</g>

<!-- Entity Personnel -->
<g id="entity-Personnel">
	<g id="frame-Personnel">
		<rect x="135" y="9" width="70" height="25" fill="#fdae61" stroke="#fdae61" stroke-width="0"/>
		<rect x="135" y="34.0" width="70" height="93" fill="#fee090" stroke="#fee090" stroke-width="0"/>
		<rect x="135" y="9" width="70" height="118" fill="none" stroke="#f46d43" stroke-width="2"/>
		<line x1="135" y1="34" x2="205" y2="34" stroke="#f46d43" stroke-width="1"/>
	</g>
	<text x="140" y="26.7" fill="#000000" font-family="Verdana" font-size="12">Personnel</text>
	<text x="140" y="51.7" fill="#000000" font-family="Verdana" font-size="12">idPerso</text>
	<line x1="140" y1="54" x2="185" y2="54" stroke="#000000" stroke-width="1"/>
	<text x="140" y="68.8" fill="#000000" font-family="Verdana" font-size="12">mail</text>
	<text x="140" y="85.8" fill="#000000" font-family="Verdana" font-size="12">mdp</text>
	<text x="140" y="102.8" fill="#000000" font-family="Verdana" font-size="12">nom</text>
	<text x="140" y="119.8" fill="#000000" font-family="Verdana" font-size="12">prénom</text>
</g>

<!-- Entity envoyé -->
<g id="entity-envoyé">
	<g id="frame-envoyé">
		<rect x="29" y="152" width="54" height="25" fill="#fdae61" stroke="#fdae61" stroke-width="0"/>
		<rect x="29" y="177.0" width="54" height="25" fill="#fee090" stroke="#fee090" stroke-width="0"/>
		<rect x="29" y="152" width="54" height="50" fill="none" stroke="#f46d43" stroke-width="2"/>
		<line x1="29" y1="177" x2="83" y2="177" stroke="#f46d43" stroke-width="1"/>
	</g>
	<text x="34" y="169.7" fill="#000000" font-family="Verdana" font-size="12">envoyé</text>
	<text x="34" y="194.8" fill="#000000" font-family="Verdana" font-size="12">pdf</text>
	<line x1="34" y1="197" x2="54" y2="197" stroke="#000000" stroke-width="1"/>
</g>
</svg>